<svg xmlns="http://www.w3.org/2000/svg" viewBox="0 0 64 64" fill="none" role="img" aria-label="ArabiyaPath">
  <defs>
    <clipPath id="ap-peninsula">
      <path d="M22 4 L44 6 L52 12 L57 22 L56 32 L52 42 L46 51 L38 58 L30 59 L22 55 L15 47 L10 37 L9 26 L13 15 Z" />
    </clipPath>
  </defs>
  <!-- Base peninsula silhouette -->
  <path d="M22 4 L44 6 L52 12 L57 22 L56 32 L52 42 L46 51 L38 58 L30 59 L22 55 L15 47 L10 37 L9 26 L13 15 Z" fill="#1F2937"/>
  <!-- UAE flag block clipped inside the lower-left of the peninsula -->
  <g clip-path="url(#ap-peninsula)">
    <rect x="6"  y="32" width="6"  height="26" fill="#EF3340"/>
    <rect x="12" y="32" width="22" height="9"  fill="#009A44"/>
    <rect x="12" y="41" width="22" height="9"  fill="#FFFFFF"/>
    <rect x="12" y="50" width="22" height="9"  fill="#0A0A0A"/>
  </g>
  <!-- Arabic letter ض in orange, upper portion of the map -->
  <text x="38" y="26" text-anchor="middle" font-family="'Noto Naskh Arabic','Amiri','Segoe UI',serif" font-weight="700" font-size="20" fill="#F59E0B">ض</text>
</svg>
